HIERARCHY
ROOT Hips
{
	OFFSET 0.000000 0.000000 0.000000
	CHANNELS 6 Xposition Yposition Zposition Yrotation Xrotation Zrotation
	JOINT Chest
	{
		OFFSET 0.000000 -0.009281 11.569106
		CHANNELS 3 Yrotation Xrotation Zrotation
		JOINT Chest2
		{
			OFFSET -0.000000 0.016865 9.269641
			CHANNELS 3 Yrotation Xrotation Zrotation
			JOINT Chest3
			{
				OFFSET -0.000000 0.000001 8.374491
				CHANNELS 3 Yrotation Xrotation Zrotation
				JOINT Chest4
				{
					OFFSET -0.000000 0.000001 8.374493
					CHANNELS 3 Yrotation Xrotation Zrotation
					JOINT Neck
					{
						OFFSET -0.000000 0.000002 12.152554
						CHANNELS 3 Yrotation Xrotation Zrotation
						JOINT Head
						{
							OFFSET -0.000000 0.040101 7.802319
							CHANNELS 3 Yrotation Xrotation Zrotation
							End Site
							{
								OFFSET -0.000000 0.020947 14.853096
							}
						}
					}
					JOINT RightCollar
					{
						OFFSET 2.894404 0.000001 6.791374
						CHANNELS 3 Yrotation Xrotation Zrotation
						JOINT RightShoulder
						{
							OFFSET 13.574684 0.000001 0.000000
							CHANNELS 3 Yrotation Xrotation Zrotation
							JOINT RightElbow
							{
								OFFSET 23.923903 0.000002 0.000000
								CHANNELS 3 Yrotation Xrotation Zrotation
								JOINT RightWrist
								{
									OFFSET 19.846718 0.012767 0.000000
									CHANNELS 3 Yrotation Xrotation Zrotation
									End Site
									{
										OFFSET 14.973145 0.000001 0.000000
									}
								}
							}
						}
					}
					JOINT LeftCollar
					{
						OFFSET -2.894404 0.000001 6.791374
						CHANNELS 3 Yrotation Xrotation Zrotation
						JOINT LeftShoulder
						{
							OFFSET -13.574684 -0.000001 0.000000
							CHANNELS 3 Yrotation Xrotation Zrotation
							JOINT LeftElbow
							{
								OFFSET -23.923903 -0.000002 0.000000
								CHANNELS 3 Yrotation Xrotation Zrotation
								JOINT LeftWrist
								{
									OFFSET -19.846718 0.012763 0.000000
									CHANNELS 3 Yrotation Xrotation Zrotation
									End Site
									{
										OFFSET -14.973145 -0.000001 0.000000
									}
								}
							}
						}
					}
				}
			}
		}
	}
	JOINT RightHip
	{
		OFFSET 9.469263 0.004643 0.045487
		CHANNELS 3 Yrotation Xrotation Zrotation
		JOINT RightKnee
		{
			OFFSET 0.000000 0.002661 -40.478676
			CHANNELS 3 Yrotation Xrotation Zrotation
			JOINT RightAnkle
			{
				OFFSET 0.000000 0.049106 -35.224068
				CHANNELS 3 Yrotation Xrotation Zrotation
				JOINT RightToe
				{
					OFFSET -0.000001 12.539529 -6.151390
					CHANNELS 3 Yrotation Xrotation Zrotation
					End Site
					{
						OFFSET -0.000001 5.044994 -1.291870
					}
				}
			}
		}
	}
	JOINT LeftHip
	{
		OFFSET -9.469263 0.004641 0.045487
		CHANNELS 3 Yrotation Xrotation Zrotation
		JOINT LeftKnee
		{
			OFFSET 0.000000 0.002661 -40.478676
			CHANNELS 3 Yrotation Xrotation Zrotation
			JOINT LeftAnkle
			{
				OFFSET 0.000000 0.049106 -35.224068
				CHANNELS 3 Yrotation Xrotation Zrotation
				JOINT LeftToe
				{
					OFFSET -0.000001 12.539529 -6.151390
					CHANNELS 3 Yrotation Xrotation Zrotation
					End Site
					{
						OFFSET -0.000001 5.044994 -1.291870
					}
				}
			}
		}
	}
}
MOTION
Frames: 15
Frame Time: 0.016667
12.979367 23.323963 81.423553 -3.080122 -1.505381 -128.787574 -1.599559 -5.793150 0.915867 -0.620607 -2.594176 0.374810 -0.620606 -2.594176 0.374804 -0.463784 -1.946016 0.278426 -0.136228 -15.887737 2.616335 0.701976 6.642698 4.824617 10.643620 8.240534 0.670133 42.687668 -14.626824 -18.806530 -42.391958 -62.632623 106.516602 -64.476842 38.624457 34.991339 -7.990103 4.672550 -4.997094 -40.598317 -14.412568 20.240663 18.130928 -60.338916 -79.296085 35.897692 24.887929 -68.322963 -11.516709 1.150892 -29.114959 20.473787 -47.236547 -18.193319 26.921865 -42.355113 1.288418 -57.112174 56.178736 -37.393216 -9.928973 -1.334166 14.263832 -5.778810 -4.430334 16.482951 12.301877 7.153727 21.528647 0.006601 -0.076031 0.140863 
12.993892 23.280407 81.420868 -3.069241 -1.514092 -128.731020 -1.587008 -5.788868 0.911230 -0.620705 -2.589658 0.370442 -0.620705 -2.589659 0.370437 -0.463879 -1.942622 0.275151 -0.134817 -15.875094 2.616247 0.705055 6.666125 4.825323 10.638217 8.250200 0.664482 42.686449 -14.614571 -18.823334 -42.395114 -62.633279 106.513781 -64.456768 38.621609 35.004562 -7.995539 4.679158 -4.996347 -40.603135 -14.432968 20.253574 18.075715 -60.347153 -79.262173 35.905724 24.884934 -68.312793 -11.480426 1.121542 -29.082341 20.493682 -47.225171 -18.236680 27.009802 -42.380682 1.297600 -57.079027 56.034039 -37.357382 -9.902323 -1.345584 14.276642 -5.769965 -4.451502 16.454045 12.278391 7.190030 21.585098 0.024261 -0.077510 0.164604 
13.001255 23.237875 81.421036 -3.045014 -1.518087 -128.659864 -1.571981 -5.779556 0.893763 -0.623259 -2.586754 0.368650 -0.623260 -2.586754 0.368651 -0.465804 -1.940445 0.273803 -0.127685 -15.858005 2.611760 0.717350 6.697696 4.820030 10.640297 8.265302 0.658941 42.689440 -14.605086 -18.837570 -42.403232 -62.634747 106.508440 -64.437200 38.619519 35.017219 -7.999123 4.699540 -5.005184 -40.604672 -14.448174 20.278080 18.020394 -60.358832 -79.233753 35.918469 24.883766 -68.304795 -11.426254 1.092332 -29.080859 20.491235 -47.187243 -18.342932 27.007120 -42.448458 1.410958 -56.997782 55.872471 -37.289906 -9.864821 -1.344735 14.263860 -5.754718 -4.477583 16.435313 12.254748 7.224546 21.689580 0.028274 -0.082176 0.163889 
13.004823 23.207605 81.423592 -3.025612 -1.490959 -128.572724 -1.580084 -5.753973 0.855120 -0.627147 -2.583698 0.368462 -0.627147 -2.583698 0.368462 -0.468722 -1.938155 0.273648 -0.120727 -15.840554 2.605211 0.728590 6.730005 4.810843 10.639929 8.273475 0.654256 42.699201 -14.612985 -18.844897 -42.408003 -62.637377 106.496590 -64.431879 38.622251 35.021231 -8.005986 4.707894 -5.000484 -40.603661 -14.453032 20.296158 17.973216 -60.357439 -79.209526 35.916184 24.879471 -68.305621 -11.404662 1.074604 -29.107640 20.477349 -47.151682 -18.477364 27.034550 -42.534194 1.543134 -56.940757 55.697771 -37.248484 -9.847068 -1.332123 14.255949 -5.743833 -4.504707 16.394797 12.226815 7.245852 21.518786 0.035537 -0.075690 0.182169 
13.010439 23.161255 81.428711 -3.017495 -1.491629 -128.527440 -1.577509 -5.754863 0.857169 -0.632312 -2.582347 0.370196 -0.632312 -2.582348 0.370198 -0.472589 -1.937146 0.274921 -0.114121 -15.821302 2.596570 0.738475 6.765746 4.797692 10.637974 8.259169 0.648773 42.704819 -14.622895 -18.812313 -42.372386 -62.652656 106.453279 -64.430274 38.621042 35.021395 -8.015459 4.722349 -5.003733 -40.598904 -14.436843 20.329220 17.952049 -60.349796 -79.208659 35.908101 24.874144 -68.315996 -11.364170 1.037920 -29.081197 20.471282 -47.111373 -18.611625 27.063233 -42.608052 1.662921 -56.869477 55.519459 -37.184769 -9.818451 -1.335672 14.306963 -5.737733 -4.528270 16.341480 12.197679 7.259474 21.577992 0.048731 -0.059956 0.209566 
13.022120 23.126230 81.434479 -3.026944 -1.473745 -128.473563 -1.599524 -5.757919 0.852034 -0.637709 -2.582240 0.373552 -0.637710 -2.582239 0.373554 -0.476623 -1.937073 0.277419 -0.109442 -15.800441 2.585521 0.743947 6.804627 4.779382 10.645096 8.260310 0.647414 42.696547 -14.652820 -18.783973 -42.325801 -62.667232 106.413446 -64.430609 38.614044 35.021819 -8.017784 4.737528 -4.995013 -40.603719 -14.415816 20.350590 17.959803 -60.335583 -79.219293 35.887480 24.871376 -68.337122 -11.361684 1.003704 -29.058777 20.471356 -47.090005 -18.680970 27.099768 -42.646202 1.753457 -56.791220 55.330912 -37.095615 -9.822611 -1.356196 14.319578 -5.725146 -4.538860 16.303260 12.180250 7.262948 21.621333 0.044920 -0.039946 0.206599 
13.039334 23.094830 81.439217 -3.043341 -1.456745 -128.432500 -1.620906 -5.760390 0.856901 -0.641199 -2.581220 0.376264 -0.641198 -2.581219 0.376257 -0.479227 -1.936313 0.279436 -0.110652 -15.783150 2.575349 0.738630 6.837077 4.760461 10.650631 8.263492 0.650866 42.679547 -14.686479 -18.763380 -42.290728 -62.680168 106.390339 -64.430698 38.605851 35.021460 -8.019831 4.749373 -4.980547 -40.616007 -14.397574 20.370819 17.960210 -60.316205 -79.222374 35.864791 24.859157 -68.357728 -11.367775 0.966397 -29.026754 20.461696 -47.075409 -18.661214 27.248210 -42.646352 1.725818 -56.745280 55.144178 -37.024010 -9.840317 -1.380318 14.297194 -5.711667 -4.546569 16.291569 12.173432 7.263709 21.578338 0.038742 -0.018789 0.204645 
13.063628 23.065977 81.442055 -3.061567 -1.439801 -128.391902 -1.640932 -5.764255 0.864431 -0.643610 -2.579874 0.379691 -0.643609 -2.579875 0.379690 -0.481023 -1.935310 0.282004 -0.112600 -15.769129 2.563659 0.731243 6.863538 4.738332 10.649575 8.256562 0.650148 42.669063 -14.690820 -18.744220 -42.280637 -62.697619 106.388044 -64.434406 38.602969 35.017946 -8.020350 4.751477 -4.974306 -40.623622 -14.369279 20.378102 17.938365 -60.308494 -79.206910 35.856157 24.842689 -68.370849 -11.380866 0.928036 -28.995980 20.444266 -47.069596 -18.578741 27.486986 -42.611580 1.618168 -56.719315 54.947007 -36.964663 -9.863778 -1.413222 14.255964 -5.701885 -4.543391 16.291362 12.169513 7.267327 21.578009 0.036804 0.000073 0.206245 
13.092925 23.044788 81.443031 -3.076407 -1.411606 -128.344432 -1.662807 -5.758442 0.861391 -0.646312 -2.575821 0.384014 -0.646312 -2.575820 0.384006 -0.483032 -1.932276 0.285232 -0.112123 -15.760552 2.552795 0.728474 6.879778 4.718492 10.645485 8.253919 0.653538 42.674831 -14.701274 -18.741793 -42.253702 -62.707946 106.360013 -64.446031 38.605151 35.008107 -8.017487 4.764867 -4.966422 -40.633605 -14.363159 20.384966 17.915152 -60.305441 -79.190682 35.848883 24.824814 -68.366785 -11.419915 0.900492 -28.975951 20.466687 -47.083001 -18.490876 27.681908 -42.545262 1.514199 -56.652232 54.749512 -36.871940 -9.887248 -1.453146 14.229171 -5.700680 -4.531711 16.286511 12.168586 7.277257 21.398721 0.032526 0.016207 0.200011 
13.124199 23.016403 81.443985 -3.074439 -1.402526 -128.310076 -1.661728 -5.749597 0.871359 -0.646582 -2.569071 0.387002 -0.646582 -2.569070 0.387003 -0.483228 -1.927217 0.287483 -0.111620 -15.756703 2.543676 0.726218 6.887183 4.701779 10.642995 8.260961 0.654617 42.689553 -14.720890 -18.758645 -42.217761 -62.713178 106.313493 -64.450737 38.610001 35.009104 -8.025120 4.779018 -4.964566 -40.631371 -14.369173 20.393311 17.900136 -60.303406 -79.186427 35.852647 24.803825 -68.353849 -11.427951 0.867614 -28.963806 20.484313 -47.084387 -18.407392 27.819475 -42.494961 1.429383 -56.547874 54.569291 -36.764470 -9.887559 -1.489564 14.227439 -5.705334 -4.517972 16.287686 12.162362 7.302665 21.257816 0.041591 0.025025 0.208399 
13.151539 22.984997 81.446877 -3.055055 -1.396780 -128.275911 -1.644472 -5.726187 0.880823 -0.645205 -2.561058 0.386837 -0.645205 -2.561058 0.386830 -0.482201 -1.921206 0.287373 -0.111751 -15.755506 2.537848 0.723882 6.889586 4.690898 10.641348 8.256516 0.662044 42.689119 -14.717886 -18.778106 -42.196502 -62.720364 106.289403 -64.448572 38.610489 35.013349 -8.040401 4.787308 -4.961148 -40.623462 -14.375484 20.399294 17.875529 -60.305359 -79.176844 35.844809 24.775435 -68.350140 -11.421100 0.835683 -28.973287 20.491548 -47.056510 -18.393493 27.903145 -42.530594 1.411384 -56.468251 54.413686 -36.701058 -9.871812 -1.506007 14.237552 -5.711735 -4.511527 16.277439 12.147436 7.328082 21.297954 0.057043 0.035826 0.223347 
13.170789 22.956890 81.451202 -3.024114 -1.389380 -128.240367 -1.621917 -5.691665 0.883678 -0.643351 -2.552275 0.385307 -0.643351 -2.552274 0.385301 -0.480823 -1.914616 0.286245 -0.112958 -15.754176 2.533734 0.720179 6.892217 4.682819 10.640233 8.260427 0.666821 42.677375 -14.708478 -18.802761 -42.206061 -62.728532 106.307988 -64.442022 38.607641 35.014470 -8.054874 4.792780 -4.959147 -40.618128 -14.374649 20.410357 17.870642 -60.316574 -79.178606 35.837128 24.752001 -68.345530 -11.401576 0.822154 -28.991435 20.491483 -47.022888 -18.462467 27.896215 -42.622590 1.480820 -56.378226 54.283362 -36.631404 -9.844533 -1.507682 14.248991 -5.716041 -4.513859 16.263748 12.136450 7.353185 21.290789 0.062458 0.042382 0.225534 
13.185577 22.922567 81.455666 -2.998266 -1.397382 -128.201735 -1.595729 -5.673707 0.881561 -0.639675 -2.546591 0.382993 -0.639676 -2.546591 0.382997 -0.478081 -1.910346 0.284531 -0.113046 -15.745688 2.531324 0.719449 6.908057 4.678514 10.638260 8.260285 0.671447 42.669162 -14.686491 -18.820221 -42.218000 -62.734475 106.323861 -64.418970 38.601193 35.027683 -8.066251 4.804480 -4.957588 -40.619258 -14.378684 20.425792 17.864944 -60.325802 -79.173272 35.831490 24.741788 -68.341753 -11.357854 0.796975 -29.010764 20.465817 -46.988283 -18.516450 27.892293 -42.707793 1.547983 -56.285451 54.156567 -36.554889 -9.815197 -1.505030 14.241937 -5.708633 -4.530535 16.259494 12.127661 7.378828 21.358604 0.064792 0.044806 0.227807 
13.201290 22.897106 81.459053 -2.991923 -1.394255 -128.160426 -1.592703 -5.669632 0.870083 -0.637567 -2.545438 0.381515 -0.637567 -2.545438 0.381513 -0.476508 -1.909482 0.283432 -0.110314 -15.729123 2.529386 0.724443 6.938748 4.676350 10.638490 8.269297 0.671634 42.665320 -14.680628 -18.830821 -42.214831 -62.726866 106.326600 -64.406088 38.592809 35.033427 -8.065968 4.806110 -4.958664 -40.632047 -14.376245 20.433547 17.850925 -60.321581 -79.154939 35.830742 24.742082 -68.334451 -11.341280 0.777630 -29.022147 20.437704 -46.976685 -18.500705 27.953169 -42.749727 1.541415 -56.208885 54.030307 -36.487437 -9.804771 -1.517119 14.232397 -5.700768 -4.548990 16.253945 12.124558 7.403730 21.326173 0.056804 0.048248 0.213167 
13.218408 22.871059 81.461235 -2.993028 -1.398770 -128.148241 -1.589871 -5.674296 0.878409 -0.636769 -2.546102 0.381631 -0.636769 -2.546102 0.381622 -0.475908 -1.909977 0.283518 -0.105062 -15.710289 2.527339 0.734189 6.973570 4.674972 10.641818 8.270940 0.669716 42.662769 -14.679762 -18.833666 -42.198555 -62.718697 106.314019 -64.397947 38.588981 35.036022 -8.062734 4.799976 -4.961863 -40.646985 -14.376990 20.445688 17.831851 -60.302702 -79.138615 35.839594 24.741122 -68.328598 -11.324686 0.756501 -28.988996 20.429845 -46.961007 -18.460895 28.070758 -42.769087 1.453664 -56.142195 53.917776 -36.432967 -9.798040 -1.540997 14.229126 -5.698224 -4.556189 16.264280 12.129041 7.430352 21.255660 0.050905 0.047990 0.205605 
